<svg xmlns="http://www.w3.org/2000/svg" width="18.853" height="23.316" viewBox="0 0 18.853 23.316">
  <path id="Path_65743" data-name="Path 65743" d="M19.621,6.463H17.39a4.463,4.463,0,0,0-8.927,0H6.232A2.238,2.238,0,0,0,4,8.695v13.39a2.238,2.238,0,0,0,2.232,2.232h13.39a2.238,2.238,0,0,0,2.232-2.232V8.695A2.238,2.238,0,0,0,19.621,6.463ZM12.927,4.232a2.238,2.238,0,0,1,2.232,2.232H10.695A2.238,2.238,0,0,1,12.927,4.232Zm6.695,17.853H6.232V8.695H8.463v2.232a1.116,1.116,0,0,0,2.232,0V8.695h4.463v2.232a1.116,1.116,0,0,0,2.232,0V8.695h2.232Z" transform="translate(-3.5 -1.5)" stroke="#fff" stroke-width="1"/>
</svg>
