<svg xmlns="http://www.w3.org/2000/svg" width="16.181" height="20.8" viewBox="0 0 16.181 20.8">
  <path id="Icon_metro-pinterest" data-name="Icon metro-pinterest" d="M12.648,15.3c-.547,2.864-1.214,5.61-3.191,7.044-.609-4.328.9-7.578,1.6-11.029C9.86,9.306,11.2,5.268,13.71,6.264c3.094,1.223-2.679,7.459,1.2,8.239,4.047.812,5.7-7.02,3.189-9.567C14.47,1.256,7.543,4.849,8.4,10.117c.207,1.288,1.537,1.677.531,3.455C6.607,13.058,5.914,11.227,6,8.788,6.147,4.794,9.59,2,13.045,1.612c4.369-.49,8.47,1.6,9.036,5.714.638,4.639-1.972,9.665-6.644,9.3-1.267-.1-1.8-.727-2.789-1.33Z" transform="translate(-5.996 -1.542)" fill="#fff"/>
</svg>
