<svg xmlns="http://www.w3.org/2000/svg" width="27.724" height="20.8" viewBox="0 0 27.724 20.8">
  <path id="Path_40846" data-name="Path 40846" d="M33.277,12.86a6.664,6.664,0,0,0-1.1-2.938A3.826,3.826,0,0,0,29.4,8.672c-3.88-.3-9.7-.3-9.7-.3h-.014s-5.82,0-9.7.3A3.825,3.825,0,0,0,7.21,9.922a6.682,6.682,0,0,0-1.1,2.938,47.732,47.732,0,0,0-.277,4.786v2.242a47.7,47.7,0,0,0,.277,4.786,6.651,6.651,0,0,0,1.1,2.935,4.542,4.542,0,0,0,3.056,1.265c2.218.226,9.427.3,9.427.3s5.826-.011,9.706-.308a3.845,3.845,0,0,0,2.778-1.253,6.664,6.664,0,0,0,1.1-2.935,47.733,47.733,0,0,0,.277-4.786V17.646A47.5,47.5,0,0,0,33.277,12.86ZM16.231,23.972v-10.4l8.667,5.2Z" transform="translate(-5.832 -8.371)" fill="#fff"/>
</svg>
